<svg width="15" height="15" viewBox="0 0 15 15" fill="none" xmlns="http://www.w3.org/2000/svg">
<path fill-rule="evenodd" clip-rule="evenodd" d="M15 13C15 14.105 14.104 15 13 15H2C0.896 15 0 14.104 0 13V2.001C0 0.896 0.896 0 2 0H13C14.104 0 15 0.896 15 2.001V13ZM14 2.001C14 1.449 13.552 1 13 1H2C1.447 1 1 1.449 1 2.001V13C1 13.553 1.447 14 2 14H13C13.552 14 14 13.553 14 13V2.001ZM8.004 8.004H10.542C10.794 8.004 10.998 7.778 10.998 7.5C10.998 7.223 10.794 6.996 10.542 6.996H8.004V4.459C8.004 4.207 7.778 4.003 7.5 4.003C7.222 4.003 6.996 4.207 6.996 4.459V6.996H4.457C4.206 6.996 4.002 7.223 4.002 7.5C4.002 7.778 4.206 8.004 4.457 8.004H6.996V10.543C6.996 10.795 7.222 10.999 7.5 10.999C7.778 10.999 8.004 10.795 8.004 10.543V8.004Z" fill="#727272"/>
</svg>
