<svg width="15" height="13" viewBox="0 0 15 13" fill="none" xmlns="http://www.w3.org/2000/svg">
<path fill-rule="evenodd" clip-rule="evenodd" d="M0.504 1H13.621C13.9 1 14.126 0.776 14.126 0.5C14.126 0.224 13.9 0 13.621 0H0.504C0.226 0 0 0.224 0 0.5C0 0.776 0.226 1 0.504 1ZM2.017 4.499C2.017 4.775 2.244 4.999 2.522 4.999H11.603C11.881 4.999 12.107 4.775 12.107 4.499C12.107 4.223 11.881 3.999 11.603 3.999H2.522C2.244 3.999 2.017 4.223 2.017 4.499ZM0.504 7.999H13.621C13.9 7.999 14.126 8.223 14.126 8.499C14.126 8.775 13.9 8.999 13.621 8.999H0.504C0.226 8.999 0 8.775 0 8.499C0 8.223 0.226 7.999 0.504 7.999ZM11.098 12H3.531C3.253 12 3.027 12.223 3.027 12.5C3.027 12.776 3.253 13 3.531 13H11.098C11.376 13 11.603 12.776 11.603 12.5C11.603 12.224 11.376 12 11.098 12Z" fill="#727272"/>
</svg>
