<svg width="15" height="15" viewBox="0 0 15 15" fill="none" xmlns="http://www.w3.org/2000/svg">
<path fill-rule="evenodd" clip-rule="evenodd" d="M7.154 9.93875L14.7 2.40275C15.09 2.01375 15.09 1.38375 14.7 0.99575L13.995 0.29175C13.607 -0.09725 12.976 -0.09725 12.586 0.29175L7.154 5.71675L6.449 6.42075L5.04 7.82775C4.9942 7.87355 4.96413 7.92752 4.93422 7.98118L4.93422 7.98119L4.93421 7.98122C4.92494 7.99784 4.91569 8.01443 4.906 8.03075C4.121 7.87875 3.057 7.96575 2 8.98675C1.27508 9.68651 1.36734 10.4361 1.45924 11.1829C1.57919 12.1575 1.69853 13.1272 0 13.9747C0 13.9747 5.852 14.4567 7 11.9797C7.308 11.3147 7.217 10.6267 7.007 10.0367C7.02482 10.0244 7.0433 10.0137 7.06173 10.0031L7.06174 10.0031L7.06176 10.0031L7.06177 10.0031C7.09398 9.98455 7.12601 9.9661 7.154 9.93875ZM4.776 8.67375C4.807 8.87875 4.883 9.07875 5.04 9.23575L5.745 9.93975C5.879 10.0738 6.044 10.1438 6.216 10.1858C6.389 10.7087 6.427 11.3398 6 11.9797C5.251 13.1007 2 12.9778 2 12.9778C2.46967 12.509 2.4375 11.9907 2.40338 11.4409C2.36485 10.8201 2.32383 10.1593 3 9.48475C3.731 8.75575 4.34 8.62275 4.776 8.67375ZM6.098 8.17975C5.903 8.37375 5.903 8.68975 6.098 8.88375C6.292 9.07875 6.608 9.07875 6.802 8.88375L7.86 7.82875L7.155 7.12475L6.098 8.17975ZM12.939 1.34775C13.133 1.15375 13.449 1.15375 13.643 1.34775C13.838 1.54175 13.838 1.85675 13.643 2.05175L8.564 7.12475L7.86 6.42075L12.939 1.34775Z" fill="#727272"/>
</svg>
