<svg width="13" height="16" viewBox="0 0 13 16" fill="none" xmlns="http://www.w3.org/2000/svg">
<path fill-rule="evenodd" clip-rule="evenodd" d="M12 5V15C12 15.553 11.552 16 11 16H2C1.447 16 1 15.552 1 15V5C0.447 5 0 4.552 0 4V3C0 2.447 0.447 2 1 2H4V0.5C4 0.224 4.224 0 4.5 0H8.5C8.775 0 9 0.224 9 0.5V2H12C12.552 2 13 2.447 13 3V4C13 4.552 12.552 5 12 5ZM2 5.5V6V14.5C2 14.776 2.224 15 2.5 15H10.5C10.775 15 11 14.776 11 14.5V6V5.5V5H10.5H2.5H2V5.5ZM5 1H8V2H5V1ZM11.5 3H8.5H4.5H1.5C1.224 3 1 3.224 1 3.5C1 3.776 1.224 4 1.5 4H2H11H11.5C11.775 4 12 3.776 12 3.5C12 3.224 11.775 3 11.5 3ZM4 14H5V7H4V14ZM7 14H6V7H7V14ZM8 14H9V7H8V14Z" fill="#727272"/>
</svg>
