<svg width="13" height="12" viewBox="0 0 13 12" fill="none" xmlns="http://www.w3.org/2000/svg">
<path d="M12.1016 12H7.48438V11.4453C7.89062 11.4193 8.22656 11.3672 8.49219 11.2891C8.76302 11.2109 8.89844 11.1146 8.89844 11C8.89844 10.9531 8.89323 10.8958 8.88281 10.8281C8.8724 10.7604 8.85677 10.7005 8.83594 10.6484L7.91406 8.16406H4.03125C3.88542 8.52865 3.76562 8.84635 3.67188 9.11719C3.58333 9.38802 3.5026 9.63802 3.42969 9.86719C3.36198 10.0911 3.3151 10.2734 3.28906 10.4141C3.26302 10.5547 3.25 10.6693 3.25 10.7578C3.25 10.9661 3.41406 11.1276 3.74219 11.2422C4.07031 11.3568 4.4401 11.4245 4.85156 11.4453V12H0.679688V11.4453C0.815104 11.4349 0.984375 11.4062 1.1875 11.3594C1.39062 11.3073 1.55729 11.2396 1.6875 11.1562C1.89583 11.0156 2.05729 10.8698 2.17188 10.7188C2.28646 10.5625 2.39844 10.349 2.50781 10.0781C3.0651 8.6875 3.67969 7.125 4.35156 5.39062C5.02344 3.65625 5.6224 2.11198 6.14844 0.757812H6.77344L10.4688 10.3203C10.5469 10.5234 10.6354 10.6875 10.7344 10.8125C10.8333 10.9375 10.9714 11.0599 11.1484 11.1797C11.2682 11.2526 11.4245 11.3151 11.6172 11.3672C11.8099 11.4141 11.9714 11.4401 12.1016 11.4453V12ZM7.63281 7.46875L5.95312 3.17188L4.30469 7.46875H7.63281Z" fill="#727272"/>
</svg>
