<svg width="14" height="13" viewBox="0 0 14 13" fill="none" xmlns="http://www.w3.org/2000/svg">
<path fill-rule="evenodd" clip-rule="evenodd" d="M0.5 1H13.5C13.775 1 14 0.776 14 0.5C14 0.224 13.775 0 13.5 0H0.5C0.224 0 0 0.224 0 0.5C0 0.776 0.224 1 0.5 1ZM9.5 4H0.5C0.224 4 0 4.223 0 4.5C0 4.776 0.224 5 0.5 5H9.5C9.775 5 10 4.776 10 4.5C10 4.224 9.775 4 9.5 4ZM0.5 7.999H13.5C13.775 7.999 14 8.223 14 8.499C14 8.775 13.775 8.999 13.5 8.999H0.5C0.224 8.999 0 8.775 0 8.499C0 8.223 0.224 7.999 0.5 7.999ZM8 12H0.5C0.224 12 0 12.224 0 12.5C0 12.776 0.224 13 0.5 13H8C8.275 13 8.5 12.776 8.5 12.5C8.5 12.224 8.275 12 8 12Z" fill="#727272"/>
</svg>
