<svg width="15" height="14" viewBox="0 0 15 14" fill="none" xmlns="http://www.w3.org/2000/svg">
<path d="M13.1016 13V14H14.1016V13H13.1016ZM8.48438 13H7.48438V14H8.48438V13ZM8.48438 12.4453L8.4204 11.4474L7.48438 11.5074V12.4453H8.48438ZM9.49219 12.2891L9.21502 11.3282L9.21002 11.3297L9.49219 12.2891ZM9.83594 11.6484L8.8984 11.9963L8.90278 12.0081L8.90746 12.0198L9.83594 11.6484ZM8.91406 9.16406L9.8516 8.81617L9.60962 8.16406H8.91406V9.16406ZM5.03125 9.16406V8.16406H4.35422L4.10277 8.79267L5.03125 9.16406ZM4.67188 10.1172L3.72689 9.79008L3.72406 9.79824L3.72138 9.80645L4.67188 10.1172ZM4.42969 10.8672L3.47676 10.564L3.47457 10.5709L3.47248 10.5778L4.42969 10.8672ZM5.85156 12.4453H6.85156V11.4947L5.90213 11.4466L5.85156 12.4453ZM5.85156 13V14H6.85156V13H5.85156ZM1.67969 13H0.679688V14H1.67969V13ZM1.67969 12.4453L1.60299 11.4483L0.679688 11.5193V12.4453H1.67969ZM2.1875 12.3594L2.41236 13.3338L2.42415 13.331L2.43588 13.328L2.1875 12.3594ZM2.6875 12.1562L3.22655 12.9985L3.23685 12.9919L3.24697 12.9851L2.6875 12.1562ZM3.17188 11.7188L3.96857 12.3231L3.97348 12.3167L3.97828 12.3101L3.17188 11.7188ZM3.50781 11.0781L4.43506 11.4526L4.43605 11.4501L3.50781 11.0781ZM7.14844 1.75781V0.757812H6.4641L6.2163 1.39571L7.14844 1.75781ZM7.77344 1.75781L8.70621 1.39735L8.45907 0.757812H7.77344V1.75781ZM11.4688 11.3203L12.4021 10.9613L12.4015 10.9599L11.4688 11.3203ZM12.1484 12.1797L11.5881 13.008L11.608 13.0214L11.6285 13.0339L12.1484 12.1797ZM12.6172 12.3672L12.3563 13.3326L12.3685 13.3359L12.3808 13.3389L12.6172 12.3672ZM13.1016 12.4453H14.1016V11.4845L13.1415 11.4461L13.1016 12.4453ZM8.63281 8.46875V9.46875H10.0974L9.56418 8.10467L8.63281 8.46875ZM6.95312 4.17188L7.88449 3.8078L6.94437 1.40283L6.01947 3.81369L6.95312 4.17188ZM5.30469 8.46875L4.37104 8.11057L3.84999 9.46875H5.30469V8.46875ZM13.1016 12H8.48438V14H13.1016V12ZM9.48438 13V12.4453H7.48438V13H9.48438ZM8.54835 13.4433C8.99742 13.4145 9.41294 13.3547 9.77435 13.2484L9.21002 11.3297C9.04018 11.3796 8.78383 11.4241 8.4204 11.4474L8.54835 13.4433ZM9.76935 13.2499C9.94865 13.1982 10.1748 13.1166 10.3766 12.973C10.582 12.8268 10.8984 12.5095 10.8984 12H8.89844C8.89844 11.6051 9.14713 11.3932 9.21712 11.3434C9.28351 11.2962 9.30655 11.3018 9.21503 11.3282L9.76935 13.2499ZM10.8984 12C10.8984 11.8848 10.8862 11.7734 10.8712 11.6761L8.89444 11.9802C8.89708 11.9973 8.89822 12.0078 8.89864 12.0124C8.89884 12.0146 8.8988 12.0147 8.89871 12.0128C8.89862 12.011 8.89844 12.0067 8.89844 12H10.8984ZM10.8712 11.6761C10.8516 11.5491 10.8189 11.4132 10.7644 11.277L8.90746 12.0198C8.89466 11.9878 8.89314 11.9718 8.89444 11.9802L10.8712 11.6761ZM10.7735 11.3005L9.8516 8.81617L7.97653 9.51195L8.8984 11.9963L10.7735 11.3005ZM8.91406 8.16406H5.03125V10.1641H8.91406V8.16406ZM4.10277 8.79267C3.95306 9.16696 3.82728 9.50007 3.72689 9.79008L5.61686 10.4443C5.70397 10.1926 5.81777 9.89034 5.95973 9.53545L4.10277 8.79267ZM3.72138 9.80645C3.63216 10.0793 3.55061 10.3319 3.47676 10.564L5.38261 11.1704C5.4546 10.9441 5.5345 10.6967 5.62237 10.4279L3.72138 9.80645ZM3.47248 10.5778C3.39988 10.8179 3.34138 11.0397 3.30578 11.232L5.27234 11.5962C5.28883 11.5071 5.32407 11.3644 5.3869 11.1566L3.47248 10.5778ZM3.30578 11.232C3.2745 11.4009 3.25 11.5827 3.25 11.7578H5.25C5.25 11.7606 5.24992 11.7487 5.25337 11.7184C5.25671 11.689 5.26261 11.6487 5.27234 11.5962L3.30578 11.232ZM3.25 11.7578C3.25 12.6421 3.98682 13.0376 4.4125 13.1863L5.07187 11.2981C4.98258 11.2669 5.01136 11.2603 5.07447 11.3224C5.11076 11.3581 5.15786 11.4164 5.19484 11.4997C5.2327 11.5851 5.25 11.6745 5.25 11.7578H3.25ZM4.4125 13.1863C4.84543 13.3375 5.31146 13.4192 5.80099 13.444L5.90213 11.4466C5.56875 11.4297 5.2952 11.3761 5.07187 11.2981L4.4125 13.1863ZM4.85156 12.4453V13H6.85156V12.4453H4.85156ZM5.85156 12H1.67969V14H5.85156V12ZM2.67969 13V12.4453H0.679688V13H2.67969ZM1.75638 13.4424C1.96059 13.4267 2.18332 13.3866 2.41236 13.3338L1.96264 11.385C1.78543 11.4259 1.66961 11.4431 1.60299 11.4483L1.75638 13.4424ZM2.43588 13.328C2.70784 13.2583 2.98127 13.1555 3.22655 12.9985L2.14845 11.314C2.13332 11.3237 2.07341 11.3563 1.93912 11.3907L2.43588 13.328ZM3.24697 12.9851C3.51836 12.8019 3.77014 12.5847 3.96857 12.3231L2.37518 11.1144C2.34445 11.1549 2.2733 11.2293 2.12803 11.3274L3.24697 12.9851ZM3.97828 12.3101C4.16007 12.0622 4.30859 11.7657 4.43505 11.4526L2.58057 10.7037C2.48828 10.9322 2.41284 11.0628 2.36547 11.1274L3.97828 12.3101ZM4.43605 11.4501C4.99507 10.0552 5.61109 8.48901 6.28404 6.75185L4.41909 6.0294C3.74829 7.76099 3.13514 9.31982 2.57958 10.7061L4.43605 11.4501ZM6.28404 6.75185C6.95583 5.01769 7.55467 3.47372 8.08058 2.11991L6.2163 1.39571C5.69012 2.75024 5.09104 4.29481 4.41909 6.0294L6.28404 6.75185ZM7.14844 2.75781H7.77344V0.757812H7.14844V2.75781ZM6.84066 2.11827L10.536 11.6808L12.4015 10.9599L8.70621 1.39735L6.84066 2.11827ZM10.5354 11.6793C10.6375 11.9448 10.7705 12.2061 10.9503 12.4332L12.5184 11.1918C12.5003 11.1689 12.4562 11.1021 12.4021 10.9613L10.5354 11.6793ZM10.9503 12.4332C11.1303 12.6605 11.3532 12.8491 11.5881 13.008L12.7087 11.3514C12.5895 11.2707 12.5364 11.2145 12.5184 11.1918L10.9503 12.4332ZM11.6285 13.0339C11.8551 13.1718 12.1076 13.2653 12.3563 13.3326L12.8781 11.4018C12.7414 11.3649 12.6814 11.3334 12.6684 11.3255L11.6285 13.0339ZM12.3808 13.3389C12.6083 13.3942 12.8404 13.4357 13.0616 13.4445L13.1415 11.4461C13.1023 11.4445 13.0115 11.4339 12.8535 11.3955L12.3808 13.3389ZM12.1016 12.4453V13H14.1016V12.4453H12.1016ZM9.56418 8.10467L7.88449 3.8078L6.02176 4.53595L7.70144 8.83283L9.56418 8.10467ZM6.01947 3.81369L4.37104 8.11057L6.23834 8.82693L7.88678 4.53006L6.01947 3.81369ZM5.30469 9.46875H8.63281V7.46875H5.30469V9.46875Z" fill="#727272"/>
</svg>
