<svg width="15" height="13" viewBox="0 0 15 13" fill="none" xmlns="http://www.w3.org/2000/svg">
<path fill-rule="evenodd" clip-rule="evenodd" d="M13.622 0.999023H0.505C0.227 0.999023 0 0.775023 0 0.499023C0 0.223023 0.227 -0.000976562 0.505 -0.000976562H13.622C13.9 -0.000976562 14.127 0.223023 14.127 0.499023C14.127 0.775023 13.9 0.999023 13.622 0.999023ZM4.541 4.99802H13.622C13.9 4.99802 14.127 4.77402 14.127 4.49802C14.127 4.22202 13.9 3.99802 13.622 3.99802H4.541C4.263 3.99802 4.037 4.22202 4.037 4.49802C4.037 4.77402 4.263 4.99802 4.541 4.99802ZM0.505 8.99902H13.622C13.9 8.99902 14.127 8.77502 14.127 8.49902C14.127 8.22302 13.9 7.99902 13.622 7.99902H0.505C0.227 7.99902 0 8.22302 0 8.49902C0 8.77502 0.227 8.99902 0.505 8.99902ZM13.622 11.999H6.055C5.775 11.999 5.55 12.222 5.55 12.499C5.55 12.775 5.776 12.999 6.055 12.999H13.622C13.9 12.999 14.127 12.775 14.127 12.499C14.127 12.223 13.9 11.999 13.622 11.999Z" fill="#727272"/>
</svg>
