<svg width="15" height="17" viewBox="0 0 15 17" fill="none" xmlns="http://www.w3.org/2000/svg">
<path fill-rule="evenodd" clip-rule="evenodd" d="M8.16026 15.865C8.24426 15.943 8.35426 15.991 8.47727 15.997C8.48096 15.997 8.48423 15.9979 8.48737 15.9987C8.49103 15.9996 8.4945 16.0005 8.49827 16C8.67826 16 8.82926 15.9 8.91726 15.756L13.8703 10.804C14.0563 10.617 14.0563 10.315 13.8703 10.129C13.6833 9.941 13.3813 9.941 13.1943 10.129L8.99827 14.324L8.99827 0.5C8.99827 0.224 8.77427 -2.28851e-07 8.49827 -2.40915e-07C8.22227 -2.5298e-07 7.99827 0.224 7.99827 0.5L7.99827 15.5C7.99827 15.503 7.99902 15.506 7.99976 15.509C8.00051 15.512 8.00126 15.515 8.00126 15.518C8.00126 15.52 8.00226 15.52 8.00226 15.52C8.00626 15.643 8.05426 15.752 8.13226 15.837C8.13476 15.8395 8.13551 15.8433 8.13627 15.847C8.13701 15.8507 8.13776 15.8545 8.14026 15.857C8.1428 15.8595 8.14636 15.8603 8.15004 15.861C8.15361 15.8618 8.15731 15.8625 8.16026 15.865ZM5.83427 0.136C5.75027 0.0579996 5.64127 0.0109996 5.51827 0.00499963L5.51527 0.00599963C5.51163 0.00599963 5.50827 0.00492115 5.50503 0.0038842C5.50203 0.00292412 5.49915 0.00199963 5.49627 0.00199963C5.31727 0.00199962 5.16627 0.102 5.07827 0.246L0.140266 5.197C-0.0467341 5.385 -0.0467341 5.686 0.140266 5.873C0.326266 6.06 0.627266 6.06 0.814266 5.873L4.99927 1.678L4.99926 15.502C4.99926 15.777 5.22326 16.002 5.49827 16.002C5.77427 16.002 5.99727 15.777 5.99727 15.502L5.99727 0.502C5.99727 0.4985 5.99627 0.4955 5.99527 0.4925C5.99427 0.4895 5.99327 0.4865 5.99327 0.483L5.99327 0.482C5.98827 0.359 5.94027 0.25 5.86327 0.166C5.8603 0.163029 5.85953 0.159078 5.85879 0.155238C5.85803 0.151323 5.8573 0.147524 5.85427 0.145C5.85113 0.141863 5.84717 0.140913 5.8434 0.140006C5.83995 0.139178 5.83665 0.138386 5.83427 0.136Z" fill="#000000"/>
</svg>
